<svg width="81" height="17" viewBox="0 0 81 17" fill="none" xmlns="http://www.w3.org/2000/svg">
<g id="Img">
<g id="Group 18" opacity="0.4">
<g id="subnow">
<path d="M26.0028 12.6034C28.2165 12.6034 29.2888 11.4794 29.2888 9.97484C29.2888 8.31467 28.2165 7.91693 26.3833 7.24249C25.5531 6.93121 25.1034 6.6891 25.1034 6.34323C25.1034 5.8936 25.5704 5.70338 25.9336 5.70338C26.5562 5.70338 27.2999 5.98007 27.9571 6.60263L29.0467 4.94247C28.0955 4.19885 27.1443 3.88757 25.9682 3.88757C24.2387 3.88757 22.9243 4.89059 22.9243 6.41241C22.9243 8.03798 24.1349 8.69513 25.5185 9.16205C26.6254 9.50792 27.0578 9.69814 27.0578 10.0959C27.0578 10.5109 26.6773 10.7876 26.0201 10.7876C25.1034 10.7876 24.3771 10.4591 23.6853 9.80191L22.5784 11.3756C23.5123 12.1711 24.6538 12.6034 26.0028 12.6034Z" fill="#00203E"/>
<path d="M35.8686 4.31489V8.12445C35.8686 9.75002 34.9866 10.5801 34.0008 10.5801C32.9458 10.5801 32.4788 10.0613 32.4788 8.5049V4.31489H30.2304V9.11017C30.2304 11.6869 31.5103 12.6034 33.3263 12.6034C34.2775 12.6034 35.1941 12.2057 35.834 11.4275H35.8686V12.4651H38.1343V4.31489H35.8686Z" fill="#00203E"/>
<path d="M44.5568 3.88757C43.5191 3.88757 42.637 4.25073 42.0144 4.97705H41.9625V1.04449H39.6969V12.4651H41.8587V11.4448H41.9106C42.4987 12.1884 43.3634 12.6034 44.4876 12.6034C46.8397 12.6034 48.5346 10.8741 48.5346 8.26279C48.5346 5.70338 46.8224 3.88757 44.5568 3.88757ZM44.0725 10.5801C42.8446 10.5801 41.8587 9.66356 41.8587 8.28009C41.8587 6.9312 42.7754 5.9109 44.0725 5.9109C45.2832 5.9109 46.2344 6.82744 46.2344 8.28009C46.2344 9.64626 45.3523 10.5801 44.0725 10.5801Z" fill="#00203E"/>
<path d="M54.7157 4.17655C53.678 4.17655 52.7094 4.59159 52.0176 5.40438H51.9831V4.31489H49.7174V12.4651H51.9831V8.49989C51.9831 6.99537 52.7613 6.19987 53.9028 6.19987C54.9578 6.19987 55.5285 6.70138 55.5285 8.30966V12.4651H57.7942V7.73898C57.7942 5.14497 56.5316 4.17655 54.7157 4.17655Z" fill="#00203E"/>
<path d="M63.3286 12.6034C65.9574 12.6034 67.8253 11.1285 67.8253 8.53448C67.8253 5.94047 65.9574 4.17655 63.3286 4.17655C60.6478 4.17655 58.8492 6.00964 58.8492 8.53448C58.8492 11.0593 60.6478 12.6034 63.3286 12.6034ZM63.3286 10.5801C62.0487 10.5801 61.1321 9.84877 61.1321 8.53448C61.1321 7.20289 62.0141 6.19987 63.3286 6.19987C64.5911 6.19987 65.525 7.15101 65.525 8.53448C65.525 9.90065 64.5565 10.5801 63.3286 10.5801Z" fill="#00203E"/>
<path d="M78.1074 4.31489L76.4644 9.45102H76.4298L74.9424 4.31489H73.1264L71.6564 9.45102H71.6218L69.9787 4.31489H67.7131L70.6014 12.4651H72.5384L74.0258 7.54875H74.0604L75.5477 12.4651H77.5021L80.373 4.31489H78.1074Z" fill="#00203E"/>
</g>
<g id="Group 956">
<path id="U" d="M8.50781 9.38512L10.2215 11.0988C11.9046 12.7819 14.7343 13.2454 17.0273 10.9524C19.3081 8.6716 18.8691 5.84192 17.1737 4.14656L15.46 2.4329L13.9232 3.9697L15.5637 5.61018C16.3565 6.40298 17.0517 8.00077 15.5637 9.48879C14.0757 10.9768 12.4779 10.2816 11.6851 9.48879L10.0446 7.84831L8.50781 9.38512Z" fill="#00203E" stroke="#00203E"/>
<path id="U_2" d="M5.4165 11.8234L3.70284 10.1097C2.01967 8.42655 1.55619 5.59688 3.84921 3.30386C6.13002 1.02305 8.9597 1.46214 10.6551 3.1575L12.3687 4.87116L10.8319 6.40797L9.19144 4.76749C8.39864 3.97469 6.80085 3.27947 5.31283 4.76749C3.82481 6.25551 4.52003 7.8533 5.31283 8.64609L6.95331 10.2866L5.4165 11.8234Z" fill="#00203E" stroke="#00203E"/>
</g>
</g>
</g>
</svg>
