<svg width="25" height="24" viewBox="0 0 25 24" fill="none" xmlns="http://www.w3.org/2000/svg">
<g id="check-done-01">
<path id="Icon" d="M6.91064 15L8.91064 17L13.4106 12.5M8.91064 8V5.2C8.91064 4.0799 8.91064 3.51984 9.12863 3.09202C9.32038 2.71569 9.62634 2.40973 10.0027 2.21799C10.4305 2 10.9905 2 12.1106 2H19.7106C20.8307 2 21.3908 2 21.8186 2.21799C22.195 2.40973 22.5009 2.71569 22.6927 3.09202C22.9106 3.51984 22.9106 4.0799 22.9106 5.2V12.8C22.9106 13.9201 22.9106 14.4802 22.6927 14.908C22.5009 15.2843 22.195 15.5903 21.8186 15.782C21.3908 16 20.8307 16 19.7106 16H16.9106M6.11064 22H13.7106C14.8307 22 15.3908 22 15.8186 21.782C16.1949 21.5903 16.5009 21.2843 16.6927 20.908C16.9106 20.4802 16.9106 19.9201 16.9106 18.8V11.2C16.9106 10.0799 16.9106 9.51984 16.6927 9.09202C16.5009 8.71569 16.1949 8.40973 15.8186 8.21799C15.3908 8 14.8307 8 13.7106 8H6.11064C4.99054 8 4.43049 8 4.00266 8.21799C3.62634 8.40973 3.32038 8.71569 3.12863 9.09202C2.91064 9.51984 2.91064 10.0799 2.91064 11.2V18.8C2.91064 19.9201 2.91064 20.4802 3.12863 20.908C3.32038 21.2843 3.62634 21.5903 4.00266 21.782C4.43049 22 4.99054 22 6.11064 22Z" stroke="#667085" stroke-width="2" stroke-linecap="round" stroke-linejoin="round"/>
</g>
</svg>
