<svg width="21" height="20" viewBox="0 0 21 20" fill="none" xmlns="http://www.w3.org/2000/svg">
<g id="file-attachment-04">
<path id="Icon" d="M17.1666 5.83335V5.66669C17.1666 4.26656 17.1666 3.56649 16.8942 3.03171C16.6545 2.56131 16.272 2.17885 15.8016 1.93917C15.2668 1.66669 14.5668 1.66669 13.1666 1.66669H7.83331C6.43318 1.66669 5.73312 1.66669 5.19834 1.93917C4.72793 2.17885 4.34548 2.56131 4.1058 3.03171C3.83331 3.56649 3.83331 4.26656 3.83331 5.66669V14.3334C3.83331 15.7335 3.83331 16.4336 4.1058 16.9683C4.34548 17.4387 4.72793 17.8212 5.19834 18.0609C5.73312 18.3334 6.43318 18.3334 7.83331 18.3334H10.9166M10.9166 9.16669H7.16665M10.0833 12.5H7.16665M13.8333 5.83335H7.16665M15.5 15V10.4167C15.5 9.72633 16.0596 9.16669 16.75 9.16669C17.4403 9.16669 18 9.72633 18 10.4167V15C18 16.3807 16.8807 17.5 15.5 17.5C14.1193 17.5 13 16.3807 13 15V11.6667" stroke="#D0D5DD" stroke-width="1.66667" stroke-linecap="round" stroke-linejoin="round"/>
</g>
</svg>
