<svg width="21" height="20" viewBox="0 0 21 20" fill="none" xmlns="http://www.w3.org/2000/svg">
<g id="file-02">
<path id="Icon" d="M12.1666 9.16669H7.16665M8.83331 12.5H7.16665M13.8333 5.83335H7.16665M17.1666 5.66669V14.3334C17.1666 15.7335 17.1666 16.4336 16.8942 16.9683C16.6545 17.4387 16.272 17.8212 15.8016 18.0609C15.2668 18.3334 14.5668 18.3334 13.1666 18.3334H7.83331C6.43318 18.3334 5.73312 18.3334 5.19834 18.0609C4.72793 17.8212 4.34548 17.4387 4.1058 16.9683C3.83331 16.4336 3.83331 15.7335 3.83331 14.3334V5.66669C3.83331 4.26656 3.83331 3.56649 4.1058 3.03171C4.34548 2.56131 4.72793 2.17885 5.19834 1.93917C5.73312 1.66669 6.43318 1.66669 7.83331 1.66669H13.1666C14.5668 1.66669 15.2668 1.66669 15.8016 1.93917C16.272 2.17885 16.6545 2.56131 16.8942 3.03171C17.1666 3.56649 17.1666 4.26656 17.1666 5.66669Z" stroke="#D0D5DD" stroke-width="1.66667" stroke-linecap="round" stroke-linejoin="round"/>
</g>
</svg>
