<svg width="25" height="24" viewBox="0 0 25 24" fill="none" xmlns="http://www.w3.org/2000/svg">
<g id="home-line">
<path id="Icon" d="M8.91064 17.0002H16.9106M11.9283 2.76424L5.14603 8.03937C4.69267 8.39199 4.46598 8.5683 4.30267 8.7891C4.15801 8.98469 4.05025 9.20503 3.98467 9.4393C3.91064 9.70376 3.91064 9.99094 3.91064 10.5653V17.8002C3.91064 18.9203 3.91064 19.4804 4.12863 19.9082C4.32038 20.2845 4.62634 20.5905 5.00266 20.7822C5.43049 21.0002 5.99054 21.0002 7.11064 21.0002H18.7106C19.8307 21.0002 20.3908 21.0002 20.8186 20.7822C21.195 20.5905 21.5009 20.2845 21.6927 19.9082C21.9106 19.4804 21.9106 18.9203 21.9106 17.8002V10.5653C21.9106 9.99094 21.9106 9.70376 21.8366 9.4393C21.771 9.20503 21.6633 8.98469 21.5186 8.7891C21.3553 8.5683 21.1286 8.39199 20.6753 8.03937L13.893 2.76424C13.5416 2.49099 13.366 2.35436 13.172 2.30184C13.0008 2.2555 12.8204 2.2555 12.6493 2.30184C12.4553 2.35436 12.2797 2.49099 11.9283 2.76424Z" stroke="#667085" stroke-width="2" stroke-linecap="round" stroke-linejoin="round"/>
</g>
</svg>
