<svg width="25" height="24" viewBox="0 0 25 24" fill="none" xmlns="http://www.w3.org/2000/svg">
<g id="layers-three-01">
<path id="Icon" d="M2.91064 12.0001L12.5529 16.8212C12.6841 16.8868 12.7496 16.9196 12.8184 16.9325C12.8794 16.9439 12.9419 16.9439 13.0028 16.9325C13.0716 16.9196 13.1372 16.8868 13.2684 16.8212L22.9106 12.0001M2.91064 17.0001L12.5529 21.8212C12.6841 21.8868 12.7496 21.9196 12.8184 21.9325C12.8794 21.9439 12.9419 21.9439 13.0028 21.9325C13.0716 21.9196 13.1372 21.8868 13.2684 21.8212L22.9106 17.0001M2.91064 7.00006L12.5529 2.17895C12.6841 2.11336 12.7496 2.08056 12.8184 2.06766C12.8794 2.05622 12.9419 2.05622 13.0028 2.06766C13.0716 2.08056 13.1372 2.11336 13.2684 2.17895L22.9106 7.00006L13.2684 11.8212C13.1372 11.8868 13.0716 11.9196 13.0028 11.9325C12.9419 11.9439 12.8794 11.9439 12.8184 11.9325C12.7496 11.9196 12.6841 11.8868 12.5529 11.8212L2.91064 7.00006Z" stroke="#667085" stroke-width="2" stroke-linecap="round" stroke-linejoin="round"/>
</g>
</svg>
