<svg width="25" height="24" viewBox="0 0 25 24" fill="none" xmlns="http://www.w3.org/2000/svg">
<g id="settings-01">
<g id="Icon">
<path d="M12.9106 15C14.5675 15 15.9106 13.6569 15.9106 12C15.9106 10.3431 14.5675 9 12.9106 9C11.2538 9 9.91064 10.3431 9.91064 12C9.91064 13.6569 11.2538 15 12.9106 15Z" stroke="#667085" stroke-width="2" stroke-linecap="round" stroke-linejoin="round"/>
<path d="M19.6379 14.7273C19.5169 15.0015 19.4808 15.3056 19.5343 15.6005C19.5877 15.8954 19.7283 16.1676 19.9379 16.3818L19.9925 16.4364C20.1615 16.6052 20.2956 16.8057 20.3871 17.0265C20.4786 17.2472 20.5257 17.4838 20.5257 17.7227C20.5257 17.9617 20.4786 18.1983 20.3871 18.419C20.2956 18.6397 20.1615 18.8402 19.9925 19.0091C19.8236 19.1781 19.6231 19.3122 19.4024 19.4037C19.1816 19.4952 18.945 19.5423 18.7061 19.5423C18.4672 19.5423 18.2306 19.4952 18.0098 19.4037C17.7891 19.3122 17.5886 19.1781 17.4197 19.0091L17.3652 18.9545C17.1509 18.745 16.8788 18.6044 16.5839 18.5509C16.289 18.4974 15.9848 18.5335 15.7106 18.6545C15.4418 18.7698 15.2124 18.9611 15.0509 19.205C14.8894 19.4489 14.8027 19.7347 14.8016 20.0273V20.1818C14.8016 20.664 14.61 21.1265 14.269 21.4675C13.928 21.8084 13.4656 22 12.9834 22C12.5012 22 12.0387 21.8084 11.6977 21.4675C11.3567 21.1265 11.1652 20.664 11.1652 20.1818V20.1C11.1582 19.7991 11.0608 19.5073 10.8857 19.2625C10.7106 19.0176 10.4659 18.8312 10.1834 18.7273C9.90918 18.6063 9.60501 18.5702 9.31011 18.6236C9.0152 18.6771 8.74308 18.8177 8.52883 19.0273L8.47428 19.0818C8.30542 19.2509 8.1049 19.385 7.88417 19.4765C7.66345 19.568 7.42685 19.6151 7.18792 19.6151C6.94898 19.6151 6.71239 19.568 6.49166 19.4765C6.27094 19.385 6.07041 19.2509 5.90155 19.0818C5.73251 18.913 5.5984 18.7124 5.5069 18.4917C5.4154 18.271 5.36831 18.0344 5.36831 17.7955C5.36831 17.5565 5.4154 17.3199 5.5069 17.0992C5.5984 16.8785 5.73251 16.678 5.90155 16.5091L5.9561 16.4545C6.16568 16.2403 6.30627 15.9682 6.35974 15.6733C6.41321 15.3784 6.37711 15.0742 6.2561 14.8C6.14086 14.5311 5.94951 14.3018 5.70561 14.1403C5.46171 13.9788 5.17591 13.8921 4.88337 13.8909H4.72883C4.24661 13.8909 3.78415 13.6994 3.44318 13.3584C3.1022 13.0174 2.91064 12.5549 2.91064 12.0727C2.91064 11.5905 3.1022 11.1281 3.44318 10.7871C3.78415 10.4461 4.24661 10.2545 4.72883 10.2545H4.81064C5.11155 10.2475 5.40338 10.1501 5.64819 9.97501C5.893 9.79991 6.07948 9.55521 6.18337 9.27273C6.30439 8.99853 6.34048 8.69437 6.28701 8.39947C6.23354 8.10456 6.09295 7.83244 5.88337 7.61818L5.82883 7.56364C5.65978 7.39478 5.52567 7.19425 5.43417 6.97353C5.34267 6.7528 5.29558 6.51621 5.29558 6.27727C5.29558 6.03834 5.34267 5.80174 5.43417 5.58102C5.52567 5.36029 5.65978 5.15977 5.82883 4.99091C5.99769 4.82186 6.19821 4.68775 6.41894 4.59626C6.63966 4.50476 6.87625 4.45766 7.11519 4.45766C7.35413 4.45766 7.59072 4.50476 7.81145 4.59626C8.03217 4.68775 8.23269 4.82186 8.40155 4.99091L8.4561 5.04545C8.67035 5.25503 8.94248 5.39562 9.23738 5.4491C9.53229 5.50257 9.83645 5.46647 10.1106 5.34545H10.1834C10.4523 5.23022 10.6816 5.03887 10.8431 4.79497C11.0046 4.55107 11.0913 4.26526 11.0925 3.97273V3.81818C11.0925 3.33597 11.284 2.87351 11.625 2.53253C11.966 2.19156 12.4284 2 12.9106 2C13.3929 2 13.8553 2.19156 14.1963 2.53253C14.5373 2.87351 14.7288 3.33597 14.7288 3.81818V3.9C14.73 4.19253 14.8167 4.47834 14.9782 4.72224C15.1397 4.96614 15.369 5.15749 15.6379 5.27273C15.9121 5.39374 16.2163 5.42984 16.5112 5.37637C16.8061 5.3229 17.0782 5.18231 17.2925 4.97273L17.347 4.91818C17.5159 4.74913 17.7164 4.61503 17.9371 4.52353C18.1578 4.43203 18.3944 4.38493 18.6334 4.38493C18.8723 4.38493 19.1089 4.43203 19.3296 4.52353C19.5504 4.61503 19.7509 4.74913 19.9197 4.91818C20.0888 5.08704 20.2229 5.28757 20.3144 5.50829C20.4059 5.72901 20.453 5.96561 20.453 6.20455C20.453 6.44348 20.4059 6.68008 20.3144 6.9008C20.2229 7.12152 20.0888 7.32205 19.9197 7.49091L19.8652 7.54545C19.6556 7.75971 19.515 8.03183 19.4615 8.32674C19.4081 8.62164 19.4442 8.9258 19.5652 9.2V9.27273C19.6804 9.54161 19.8718 9.77093 20.1157 9.93245C20.3596 10.094 20.6454 10.1807 20.9379 10.1818H21.0925C21.5747 10.1818 22.0371 10.3734 22.3781 10.7144C22.7191 11.0553 22.9106 11.5178 22.9106 12C22.9106 12.4822 22.7191 12.9447 22.3781 13.2856C22.0371 13.6266 21.5747 13.8182 21.0925 13.8182H21.0106C20.7181 13.8193 20.4323 13.906 20.1884 14.0676C19.9445 14.2291 19.7532 14.4584 19.6379 14.7273Z" stroke="#667085" stroke-width="2" stroke-linecap="round" stroke-linejoin="round"/>
</g>
</g>
</svg>
