<svg width="25" height="24" viewBox="0 0 25 24" fill="none" xmlns="http://www.w3.org/2000/svg">
<g id="stars-02">
<path id="Icon" d="M5.41064 22V17M5.41064 7V2M2.91064 4.5H7.91064M2.91064 19.5H7.91064M13.9106 3L12.1765 7.50886C11.8945 8.24209 11.7534 8.60871 11.5342 8.91709C11.3398 9.1904 11.101 9.42919 10.8277 9.62353C10.5194 9.8428 10.1527 9.98381 9.41951 10.2658L4.91065 12L9.41951 13.7342C10.1527 14.0162 10.5194 14.1572 10.8277 14.3765C11.101 14.5708 11.3398 14.8096 11.5342 15.0829C11.7534 15.3913 11.8945 15.7579 12.1765 16.4911L13.9106 21L15.6448 16.4911C15.9268 15.7579 16.0678 15.3913 16.2871 15.0829C16.4815 14.8096 16.7202 14.5708 16.9936 14.3765C17.3019 14.1572 17.6686 14.0162 18.4018 13.7342L22.9106 12L18.4018 10.2658C17.6686 9.98381 17.3019 9.8428 16.9936 9.62353C16.7202 9.42919 16.4815 9.1904 16.2871 8.91709C16.0678 8.60871 15.9268 8.24209 15.6448 7.50886L13.9106 3Z" stroke="#667085" stroke-width="2" stroke-linecap="round" stroke-linejoin="round"/>
</g>
</svg>
