<svg width="132" height="24" viewBox="0 0 132 24" fill="none" xmlns="http://www.w3.org/2000/svg">
<g id="Subnow Logo">
<g id="subnow">
<path d="M42.1289 21C45.7678 21 47.5303 19.1523 47.5303 16.6793C47.5303 13.9504 45.7678 13.2966 42.7543 12.1879C41.3897 11.6763 40.6506 11.2783 40.6506 10.7098C40.6506 9.97072 41.4182 9.65803 42.0152 9.65803C43.0386 9.65803 44.261 10.1129 45.3413 11.1362L47.1323 8.40729C45.5688 7.18498 44.0052 6.67331 42.072 6.67331C39.2292 6.67331 37.0686 8.32202 37.0686 10.8235C37.0686 13.4955 39.0586 14.5757 41.3329 15.3432C43.1523 15.9118 43.863 16.2244 43.863 16.8782C43.863 17.5605 43.2376 18.0153 42.1573 18.0153C40.6506 18.0153 39.4566 17.4752 38.3194 16.395L36.5 18.9818C38.0351 20.2894 39.9114 21 42.1289 21Z" fill="black"/>
<path d="M58.3458 7.37572V13.6377C58.3458 16.3097 56.896 17.6742 55.2755 17.6742C53.5414 17.6742 52.7738 16.8214 52.7738 14.263V7.37572H49.0781V15.258C49.0781 19.4934 51.1818 21 54.1668 21C55.7304 21 57.2371 20.3462 58.289 19.067H58.3458V20.7726H62.07V7.37572H58.3458Z" fill="black"/>
<path d="M72.627 6.67331C70.9213 6.67331 69.4714 7.27025 68.448 8.46414H68.3627V2H64.6385V20.7726H68.1921V19.0955H68.2774C69.244 20.3178 70.6654 21 72.5133 21C76.3796 21 79.1656 18.1574 79.1656 13.8651C79.1656 9.65804 76.3512 6.67331 72.627 6.67331ZM71.831 17.6742C69.8126 17.6742 68.1921 16.1676 68.1921 13.8935C68.1921 11.6763 69.6988 9.99915 71.831 9.99915C73.821 9.99915 75.3846 11.5057 75.3846 13.8935C75.3846 16.1392 73.9347 17.6742 71.831 17.6742Z" fill="black"/>
<path d="M89.3257 7.14831C87.62 7.14831 86.028 7.83053 84.8908 9.16655H84.834V7.37572H81.1098V20.7726H84.834V14.2548C84.834 11.7817 86.1132 10.4741 87.9895 10.4741C89.7237 10.4741 90.6618 11.2985 90.6618 13.9421V20.7726H94.386V13.0041C94.386 8.74016 92.3107 7.14831 89.3257 7.14831Z" fill="black"/>
<path d="M103.483 21C107.804 21 110.875 18.5756 110.875 14.3117C110.875 10.0478 107.804 7.14831 103.483 7.14831C99.0767 7.14831 96.1201 10.1615 96.1201 14.3117C96.1201 18.4618 99.0767 21 103.483 21ZM103.483 17.6742C101.379 17.6742 99.8727 16.472 99.8727 14.3117C99.8727 12.1229 101.323 10.4741 103.483 10.4741C105.558 10.4741 107.094 12.0376 107.094 14.3117C107.094 16.5573 105.502 17.6742 103.483 17.6742Z" fill="black"/>
<path d="M127.776 7.37572L125.075 15.8182H125.018L122.573 7.37572H119.588L117.172 15.8182H117.115L114.414 7.37572H110.69L115.438 20.7726H118.622L121.067 12.6914H121.124L123.568 20.7726H126.781L131.5 7.37572H127.776Z" fill="black"/>
</g>
<g id="Group 956">
<path id="U" d="M13.3716 15.71L16.1884 18.5268C18.9551 21.2935 23.6064 22.0553 27.3755 18.2862C31.1246 14.5371 30.4029 9.88584 27.6161 7.09908L24.7993 4.28225L22.2732 6.80838L24.9697 9.50492C26.2729 10.8081 27.4156 13.4344 24.9697 15.8804C22.5238 18.3263 19.8974 17.1835 18.5942 15.8804L15.8977 13.1838L13.3716 15.71Z" fill="black" stroke="black" stroke-width="0.7"/>
<path id="U_2" d="M8.29004 19.7178L5.47321 16.9009C2.7065 14.1342 1.94465 9.48296 5.71379 5.71382C9.46288 1.96473 14.1142 2.68648 16.9009 5.47324L19.7177 8.29006L17.1916 10.8162L14.4951 8.11965C13.1919 6.81649 10.5656 5.67372 8.11963 8.11965C5.67369 10.5656 6.81647 13.192 8.11963 14.4951L10.8162 17.1916L8.29004 19.7178Z" fill="black" stroke="black" stroke-width="0.7"/>
</g>
</g>
</svg>
