<svg width="21" height="20" viewBox="0 0 21 20" fill="none" xmlns="http://www.w3.org/2000/svg">
<g id="user-square">
<path id="Icon" d="M3.83337 18.1812C4.33552 18.3334 5.01376 18.3334 6.16669 18.3334H14.8334C15.9863 18.3334 16.6645 18.3334 17.1667 18.1812M3.83337 18.1812C3.7257 18.1486 3.62613 18.109 3.53171 18.0609C3.06131 17.8212 2.67885 17.4387 2.43917 16.9683C2.16669 16.4336 2.16669 15.7335 2.16669 14.3334V5.66669C2.16669 4.26656 2.16669 3.56649 2.43917 3.03171C2.67885 2.56131 3.06131 2.17885 3.53171 1.93917C4.06649 1.66669 4.76656 1.66669 6.16669 1.66669H14.8334C16.2335 1.66669 16.9336 1.66669 17.4683 1.93917C17.9387 2.17885 18.3212 2.56131 18.5609 3.03171C18.8334 3.56649 18.8334 4.26656 18.8334 5.66669V14.3334C18.8334 15.7335 18.8334 16.4336 18.5609 16.9683C18.3212 17.4387 17.9387 17.8212 17.4683 18.0609C17.3739 18.109 17.2743 18.1486 17.1667 18.1812M3.83337 18.1812C3.83365 17.5068 3.83769 17.1499 3.8974 16.8497C4.16043 15.5274 5.19408 14.4938 6.51639 14.2307C6.83838 14.1667 7.2256 14.1667 8.00002 14.1667H13C13.7744 14.1667 14.1617 14.1667 14.4837 14.2307C15.806 14.4938 16.8396 15.5274 17.1026 16.8497C17.1623 17.1499 17.1664 17.5068 17.1667 18.1812M13.8334 7.91669C13.8334 9.75764 12.341 11.25 10.5 11.25C8.65907 11.25 7.16669 9.75764 7.16669 7.91669C7.16669 6.07574 8.65907 4.58335 10.5 4.58335C12.341 4.58335 13.8334 6.07574 13.8334 7.91669Z" stroke="#1D2939" stroke-width="1.66667" stroke-linecap="round" stroke-linejoin="round"/>
</g>
</svg>
