<svg width="449" height="269" viewBox="0 0 449 269" fill="none" xmlns="http://www.w3.org/2000/svg">
<g opacity="0.72">
<path d="M174.283 37.4081L174.236 37.3854L174.257 37.3818L174.283 37.4081Z" fill="#EFF1EF"/>
<path d="M174.236 37.3854C124.949 45.9896 65.6422 56.46 61.126 57.4861C59.0252 57.9598 55.48 59.8544 51.4884 62.328C35.3381 49.5128 23.8359 43.2762 23.8359 43.2762C41.5715 37.7935 50.6648 28.7899 59.075 20.4627C68.3851 11.2445 76.8581 2.85512 95.2911 0.988681C97.2869 0.804479 99.1777 0.699219 100.99 0.699219C115.33 0.699219 124.433 6.85089 137.77 15.8629C144.778 20.5983 152.955 26.1235 163.674 31.961C167.281 33.9256 170.811 35.7337 174.236 37.3854Z" fill="#EFF1EF"/>
<path fill-rule="evenodd" clip-rule="evenodd" d="M109.416 123.959C112.298 128.107 115.102 132.412 117.828 136.901L117.826 136.902C119.874 140.244 121.87 143.691 123.813 147.243C143.482 143.006 165.462 141.217 190.279 142.796C165.471 141.22 143.499 143.009 123.835 147.244C124.938 149.27 126.015 151.323 127.092 153.401C137.438 153.638 146.498 153.717 151.094 153.533H151.067C158.702 153.217 185.52 151.563 211.18 149.671L211.189 149.675C185.524 151.568 158.722 153.223 151.06 153.539C146.464 153.723 137.404 153.644 127.058 153.407C133.071 165.115 138.453 177.797 142.812 191.505L142.808 191.507C146.195 202.085 148.953 213.269 151.001 225.058L151.017 225.056C151.75 229.336 152.379 233.668 152.929 238.104C162.383 238.025 175.986 242.288 195.944 259.998C196.974 259.057 197.999 258.059 199.058 257.027C209.906 246.455 224.386 232.344 285.729 240.183C297.1 242.13 319.815 240.946 338.513 230.078L338.51 230.071C355.15 220.411 368.584 203.072 367.98 173.454H367.928L367.904 173.453C359.846 172.42 348.913 168.763 336.959 161.775C307.704 167.117 259.753 170.301 211.249 149.697V149.693L211.304 149.689C259.794 170.275 307.754 167.091 336.974 161.751C324.789 154.646 311.554 144.094 299.159 129.384L299.14 129.395C296.254 125.951 293.395 122.323 290.615 118.407C267.332 132.095 234.888 144.472 195.111 143.044L195.03 143.013C234.873 144.461 267.321 132.077 290.62 118.379C290.672 118.353 290.717 118.327 290.762 118.301C290.808 118.275 290.854 118.249 290.907 118.222V118.196H290.49L290.489 118.195L290.481 118.194C278.487 101.305 267.859 80.025 260.51 53.567C135.116 110.012 79.1284 82.7761 56.8857 66.7506C72.7996 80.0131 92.1537 98.9859 109.407 123.958L109.416 123.959ZM207.94 111.479C208.051 111.467 208.164 111.45 208.278 111.43C218.285 110.798 228.547 110.808 239.013 111.612L239.027 111.614L239.053 111.639C239.062 111.639 239.068 111.633 239.071 111.625C239.074 111.631 239.076 111.638 239.075 111.645L239.045 111.642C238.912 111.656 238.777 111.675 238.639 111.7C238.779 111.674 238.915 111.654 239.05 111.64C228.453 110.825 218.066 110.798 207.94 111.479ZM207.904 111.483C207.903 111.483 207.901 111.484 207.899 111.484V111.485H207.904V111.483ZM207.904 111.485H207.899V111.511C207.901 111.511 207.903 111.511 207.904 111.511V111.485ZM223.398 127.101C223.41 127.113 223.439 127.111 223.445 127.095C223.431 127.101 223.398 127.085 223.398 127.085V127.101ZM231.453 107.389C228.646 104.974 226.028 101.892 224.619 99.1657C226.029 101.889 228.647 104.969 231.453 107.389ZM273.493 189.761C266.157 192.439 258.706 195.488 251.126 199.003C258.706 195.51 266.157 192.444 273.493 189.761ZM361.862 173.461C340.433 173.723 317.304 176.507 292.632 183.535C317.304 176.491 340.433 173.707 361.862 173.461ZM129.141 125.693C122.884 124.872 116.759 124.32 110.758 124.019C116.761 124.307 122.88 124.865 129.141 125.693Z" fill="#EFF1EF"/>
<path d="M260.472 53.4334C260.498 53.4598 260.498 53.5387 260.498 53.5387H260.525C135.104 109.983 79.1163 82.7479 56.8998 66.7223C55.3485 65.4342 53.8158 64.2024 52.3334 63.011C52.0594 62.7908 51.7868 62.5716 51.5164 62.3541C55.508 59.8805 59.0269 57.9859 61.1541 57.5122C65.6709 56.4596 124.994 46.0127 174.285 37.4079C228.959 63.9067 260.472 53.4334 260.472 53.4334Z" fill="#EFF1EF"/>
<path d="M51.4951 62.3564C51.4951 62.3564 51.3901 62.4353 51.3113 62.4617C52.8607 63.7246 54.7252 65.1718 56.8786 66.7242C55.0403 65.1981 53.2283 63.7246 51.4951 62.3564Z" fill="#EFF1EF"/>
</g>
<g filter="url(#filter0_d_10028_83550)">
<rect x="25" y="139" width="291.333" height="53.6667" rx="6.13333" fill="white"/>
<g opacity="0.8">
<circle cx="51.0656" cy="165.835" r="13.8" fill="#E7E9E8"/>
<rect x="77.1328" y="159.703" width="153.333" height="12.2667" rx="6.13333" fill="#E7E9E8"/>
<rect x="242.73" y="159.703" width="36.8" height="12.2667" rx="6.13333" fill="#E7E9E8"/>
<rect x="291.801" y="159.703" width="12.2667" height="12.2667" rx="6.13333" fill="#E7E9E8"/>
</g>
</g>
<g filter="url(#filter1_d_10028_83550)">
<rect x="101.668" y="76.8984" width="291.333" height="53.6667" rx="6.13333" fill="white"/>
<g opacity="0.8">
<circle cx="127.734" cy="103.734" r="13.8" fill="#E7E9E8"/>
<rect x="153.801" y="97.6016" width="153.333" height="12.2667" rx="6.13333" fill="#E7E9E8"/>
<rect x="319.398" y="97.6016" width="36.8" height="12.2667" rx="6.13333" fill="#E7E9E8"/>
<rect x="368.469" y="97.6016" width="12.2667" height="12.2667" rx="6.13333" fill="#E7E9E8"/>
</g>
</g>
<defs>
<filter id="filter0_d_10028_83550" x="0.466667" y="126.733" width="340.399" height="102.735" filterUnits="userSpaceOnUse" color-interpolation-filters="sRGB">
<feFlood flood-opacity="0" result="BackgroundImageFix"/>
<feColorMatrix in="SourceAlpha" type="matrix" values="0 0 0 0 0 0 0 0 0 0 0 0 0 0 0 0 0 0 127 0" result="hardAlpha"/>
<feOffset dy="12.2667"/>
<feGaussianBlur stdDeviation="12.2667"/>
<feColorMatrix type="matrix" values="0 0 0 0 0.0156863 0 0 0 0 0.0352941 0 0 0 0 0.129412 0 0 0 0.02 0"/>
<feBlend mode="normal" in2="BackgroundImageFix" result="effect1_dropShadow_10028_83550"/>
<feBlend mode="normal" in="SourceGraphic" in2="effect1_dropShadow_10028_83550" result="shape"/>
</filter>
<filter id="filter1_d_10028_83550" x="46.468" y="49.2984" width="401.732" height="164.068" filterUnits="userSpaceOnUse" color-interpolation-filters="sRGB">
<feFlood flood-opacity="0" result="BackgroundImageFix"/>
<feColorMatrix in="SourceAlpha" type="matrix" values="0 0 0 0 0 0 0 0 0 0 0 0 0 0 0 0 0 0 127 0" result="hardAlpha"/>
<feOffset dy="27.6"/>
<feGaussianBlur stdDeviation="27.6"/>
<feColorMatrix type="matrix" values="0 0 0 0 0.0156863 0 0 0 0 0.0352941 0 0 0 0 0.129412 0 0 0 0.12 0"/>
<feBlend mode="normal" in2="BackgroundImageFix" result="effect1_dropShadow_10028_83550"/>
<feBlend mode="normal" in="SourceGraphic" in2="effect1_dropShadow_10028_83550" result="shape"/>
</filter>
</defs>
</svg>
